<!-- Generated by IcoMoon.io -->
<svg version="1.1" xmlns="http://www.w3.org/2000/svg" width="1024" height="1024" viewBox="0 0 1024 1024">
<title></title>
<g id="icomoon-ignore">
</g>
<path fill="rgb(255, 145, 0)"
        d="M666.837 410.411c60.629 60.971 110.080 160.683 81.792 219.819-75.861 158.507-641.707 436.309-689.877 388.267-48-48 230.016-614.187 388.437-690.091 59.221-28.16 158.891 21.76 219.819 81.92l-0.213 0.597zM966.699 343.595c-9.856-36.48-35.029-73.259-72.533-77.653-68.693-7.936-177.109 113.621-169.429 142.464 7.723 29.44 160.683 80 217.6 39.040 29.483-21.077 33.323-66.56 23.723-102.997zM753.749 6.741c51.115 13.824 102.699 48.981 108.843 101.632 11.136 96.384-159.232 248.277-199.68 237.397-40.448-10.709-111.701-225.451-54.144-305.579 29.653-41.472 93.909-47.189 145.024-33.621v0.171z"></path>
</svg>
